<?xml version="1.0" encoding="utf-8"?>
<!-- Generator: Adobe Illustrator 28.1.0, SVG Export Plug-In . SVG Version: 6.00 Build 0)  -->
<svg version="1.1" id="图层_1" xmlns="http://www.w3.org/2000/svg" xmlns:xlink="http://www.w3.org/1999/xlink" x="0px" y="0px"
	 viewBox="0 0 40 40" style="enable-background:new 0 0 40 40;" xml:space="preserve">
<style type="text/css">
	.st0{fill:#231815;}
	.st1{fill:#8EA082;}
	.st2{fill:#CEE7D3;}
	.st3{fill:#81B6BE;}
</style>
<path class="st0" d="M20,0L20,0c11,0,20,9,20,20l0,0c0,11-9,20-20,20l0,0C9,40,0,31,0,20l0,0C0,9,9,0,20,0z"/>
<path class="st1" d="M29.3,17c-0.2-0.1-0.2-0.3-0.2-0.4C29.3,16.6,29.3,16.8,29.3,17z"/>
<path class="st2" d="M22.6,11.6c2.7,0.7,4.9,2.2,6.5,4.6c0.1,0.1,0,0.2,0.1,0.3c0,0.2,0,0.3,0.2,0.4v0c0.4,1,0.8,2,1.1,3
	c0.2,0.7,0.4,1.5,0.2,2.1c-0.3,0.9-0.4,1.9-0.3,2.8c0.2,1.4,0.2,2.7-0.1,4.1c-0.2,0.8-0.6,1.3-1.3,1.6c-0.5,0.3-0.9,0.6-1.1,1.2
	c-0.3,0.8-1,1.1-1.7,0.8c-1.4-0.6-2.8-0.6-4.2-0.2c-0.5,0.1-0.9,0.1-1.4,0c-1.9-0.4-3.8-0.6-5.8-0.5c-0.2,0-0.5,0-0.7,0.1
	c-0.8,0.6-1.6,0.6-2.5,0.4c-1.4-0.2-3-1.7-3.2-3.1C8.2,26.9,7.9,24.4,8,22c0.1-2.1,0.6-4,1.8-5.7c2.5-3.5,6.9-5.7,11.8-4.6
	C21.9,11.7,22.3,12,22.6,11.6L22.6,11.6z M16.9,18.9c-0.5-0.1-0.6,0.1-0.4,0.5c0.2,0.6,0.3,1.2,0.7,1.7c0.2,0.2,0.4,0.4,0.6,0.4
	c0.7-0.2,0.8-0.8,1.1-1.3c0.3-0.7-0.1-1.1-0.5-1.5c-0.4-0.4-0.7,0-1,0.3C17.3,19.1,17.1,19,16.9,18.9z M19.8,18.6
	c0.3,0,0.4,0,0.6-0.1c1.3-0.1,2.5,0.4,3.8,0.8c0.3,0.1,0.7,0.3,0.9-0.1c0.2-0.4-0.2-0.5-0.5-0.7c-1.2-0.6-2.4-0.8-3.7-0.7
	C20.4,17.9,20,18,19.8,18.6L19.8,18.6z M14.1,18.3c-1.1,0-2.1,0.4-2.9,1.1c-0.2,0.1-0.4,0.4-0.2,0.6c0.2,0.3,0.4,0.1,0.6,0
	c0.8-0.4,1.7-0.8,2.6-0.9c0.3,0,0.8-0.1,0.8-0.4C15,18.2,14.5,18.4,14.1,18.3C14.1,18.3,14.1,18.3,14.1,18.3z"/>
<path class="st3" d="M22.6,11.6c-0.3,0.4-0.6,0.1-1,0c-4.8-1.1-9.3,1.1-11.8,4.6C8.7,18,8.1,20,8,22c-0.1,2.4,0.1,4.8,0.4,7.2
	c0.1,1.4,1.8,2.9,3.2,3.1c0.9,0.1,1.7,0.1,2.5-0.4c0.2-0.2,0.4-0.1,0.7-0.1c2-0.1,3.9,0.1,5.8,0.5c0.5,0.1,0.9,0.1,1.4,0
	c1.4-0.4,2.8-0.4,4.2,0.2c0.7,0.3,1.4,0.1,1.7-0.8c0.2-0.6,0.6-0.9,1.1-1.2c0.6-0.3,1.1-0.8,1.3-1.6c0.3-1.4,0.3-2.7,0.1-4.1
	c-0.2-1-0.1-1.9,0.3-2.8c0.3-0.7,0-1.4-0.2-2.1c-0.3-1-0.7-2-1.1-3c1,1.2,1.3,2.7,1.5,4.1c0.3,2.4,0.5,4.8,1.4,7
	c0.1,0.3,0.2,0.7-0.1,0.9c-0.9,0.6-1.2,1.7-2,2.4c-0.3,0.3-0.6,0.6-1,0.8c-0.7,0.4-1.1,0.9-1.2,1.7c-0.1,0.1-0.1,0.1,0,0.2l0,0
	c0.1,1.5-0.8,2.3-2.2,1.9c-1-0.2-1.9-0.6-2.8-1.1c-0.5-0.3-1-0.4-1.5-0.4c-1.5,0.2-3,0.2-4.5,0.1c-1.4-0.1-2.7,0.1-4,0.9
	c-0.7,0.4-1.6,0.7-2.5,0.5c-0.6-0.2-0.7-0.4-0.6-1c0.1-0.5,0.6-1,0.3-1.6c-1.2-1.7-2.1-3.5-2.2-5.7c-0.2-3.1-0.5-6.3,0.6-9.3
	c1.5-4.3,4.7-6.6,9.1-7.5c0.4-0.1,0.9,0,1-0.5c0.1-0.5-0.4-0.8-0.8-1.1c-0.8-0.5-1.6-0.8-2.5-0.9c-0.4,0-0.8,0-0.9,0.5
	c-0.1,0.6,0.4,0.4,0.7,0.5c0.1,0,0.3,0.1,0.3,0.3c0,0.1-0.1,0.2-0.2,0.3c-0.3,0.2-0.7,0.3-1.1,0c-0.4-0.3-0.4-0.7-0.2-1.1
	c0.4-0.8,1.1-0.9,1.9-0.9c0.6,0,1.2,0.3,1.8,0.6c0.4,0.2,0.6,0,0.5-0.4c-0.4-2.2,0.6-3.7,2.3-5c1.1-0.8,2.3-1.4,3.5-2.1
	c0.4-0.3,0.7-0.1,0.8,0.3c0.5,1.9,1.1,3.8,0.2,5.6c-0.8,1.6-2.2,2.8-4.3,2.9c-0.3,0-0.5,0-0.8,0c-0.3,0-0.4,0.1-0.5,0.4
	c-0.1,0.3,0.1,0.4,0.3,0.5C20.6,11.1,21.6,11.4,22.6,11.6L22.6,11.6z"/>
<path class="st3" d="M16.9,18.9c0.2,0.1,0.4,0.1,0.5,0c0.3-0.3,0.6-0.7,1-0.3c0.4,0.4,0.8,0.8,0.5,1.5c-0.2,0.5-0.4,1.1-1.1,1.3
	c-0.3,0.1-0.5-0.1-0.6-0.4c-0.4-0.5-0.5-1.1-0.7-1.7C16.4,19,16.4,18.8,16.9,18.9z"/>
<path class="st3" d="M19.8,18.6c0.2-0.6,0.6-0.7,1.1-0.8c1.3-0.1,2.5,0.1,3.7,0.7c0.3,0.1,0.7,0.3,0.5,0.7c-0.2,0.5-0.6,0.2-0.9,0.1
	c-1.2-0.4-2.4-0.9-3.8-0.8C20.2,18.5,20,18.6,19.8,18.6L19.8,18.6z"/>
<path class="st3" d="M14.1,18.3C14.1,18.3,14.1,18.3,14.1,18.3c0.4,0,0.9-0.1,1,0.3c0,0.4-0.5,0.4-0.8,0.4c-1,0.1-1.8,0.5-2.6,0.9
	c-0.2,0.1-0.4,0.3-0.6,0c-0.2-0.2,0-0.4,0.2-0.6C12,18.7,13,18.3,14.1,18.3z"/>
</svg>
