<?xml version="1.0" encoding="utf-8"?>
<!-- Generator: Adobe Illustrator 28.1.0, SVG Export Plug-In . SVG Version: 6.00 Build 0)  -->
<svg version="1.1" id="图层_1" xmlns="http://www.w3.org/2000/svg" xmlns:xlink="http://www.w3.org/1999/xlink" x="0px" y="0px"
	 viewBox="0 0 800 800" style="enable-background:new 0 0 800 800;" xml:space="preserve">
<style type="text/css">
	.st0{fill:#FFFFFF;}
	.st1{fill:none;}
</style>
<path class="st0" d="M420.1,585.8H65l227.2-227.2l88.8,68.4l88.8-68.4l61,61c12.2-6.5,25-11.7,38.3-15.7L500.3,335l223.6-172.1v256
	c13.5,6.7,26.3,14.9,38.1,24.3V147.5c-0.1-31.5-25.6-57-57.2-57.2H57.2C25.6,90.5,0.1,116,0,147.5v419.1c0,31.5,25.6,57.2,57.2,57.2
	h362.9c-0.6-6.3-0.9-12.6-0.9-19.1C419.1,598.2,419.5,592.1,420.1,585.8z M38.1,558.8V162.9l223.7,172.3L38.1,558.8z M704.8,128.6
	c0.3,0,0.6,0.2,0.9,0.2L381,378.9L56.1,128.7c0.3,0,0.6-0.2,0.9-0.2h647.7V128.6z M628.7,433.3c-94.6,0.1-171.3,76.8-171.5,171.5
	c0.2,6.4,0.9,12.7,1.9,19.1c9.5,86.5,82.5,152.1,169.5,152.4h19.1v-38.1h-19.1c-66.1-0.2-122.1-48.8-131.4-114.3
	c-1.1-6.3-1.7-12.7-1.9-19.1c0-73.6,59.6-133.3,133.2-133.4c35,0,68.5,13.7,93.4,38.1h-36.1V529c-16.3-12.6-36.5-19.4-57.2-19.5
	c-52.6-0.1-95.3,42.4-95.6,95c-0.1,52.6,42.4,95.3,95,95.6c24.8,0.1,48.7-9.6,66.5-26.9c16.7,26.7,51.9,34.9,78.6,18.2
	c16.7-10.4,26.9-28.8,26.9-48.5v-38.1C799,510.6,722.8,434.4,628.7,433.3z M628.7,661.9c-24.1-0.1-45.6-15.3-53.6-38.1
	c-2.3-6.1-3.4-12.6-3.5-19.1c0-31.5,25.6-57.2,57.2-57.2c31.5,0,57.2,25.6,57.2,57.2c-0.1,6.5-1.3,12.9-3.5,19.1
	C674.3,646.6,652.8,661.9,628.7,661.9z M761.9,642.9c0,10.5-8.6,19.1-19.1,19.1c-10.5,0-19.1-8.6-19.1-19.1V511.6
	c23.9,25.1,37.5,58.5,38.1,93.3v38.1H761.9z"/>
<path class="st1" d="M0,0h800v800H0V0z"/>
</svg>
