<?xml version="1.0" encoding="utf-8"?>
<!-- Generator: Adobe Illustrator 28.1.0, SVG Export Plug-In . SVG Version: 6.00 Build 0)  -->
<svg version="1.1" id="图层_1" xmlns="http://www.w3.org/2000/svg" xmlns:xlink="http://www.w3.org/1999/xlink" x="0px" y="0px"
	 viewBox="0 0 40 40" style="enable-background:new 0 0 40 40;" xml:space="preserve">
<style type="text/css">
	.st0{fill:#FFFFFF;}
	.st1{fill:#63A1B4;}
	.st2{fill:#336F81;}
</style>
<path class="st0" d="M20,0L20,0c11,0,20,9,20,20l0,0c0,11-9,20-20,20l0,0C9,40,0,31,0,20l0,0C0,9,9,0,20,0z"/>
<path class="st1" d="M22.2,12.8c2.3,0.6,4.1,1.9,5.5,3.8c0.1,0.1,0,0.2,0.1,0.3c0,0.1,0,0.3,0.2,0.4c0,0,0,0,0,0
	c0.3,0.8,0.7,1.7,0.9,2.5c0.2,0.6,0.3,1.2,0.1,1.8c-0.3,0.8-0.4,1.6-0.2,2.4c0.2,1.2,0.2,2.3-0.1,3.4c-0.1,0.6-0.5,1.1-1.1,1.4
	c-0.4,0.2-0.8,0.5-0.9,1c-0.3,0.7-0.9,0.9-1.4,0.6c-1.2-0.5-2.3-0.5-3.5-0.2c-0.4,0.1-0.8,0.1-1.2,0c-1.6-0.4-3.2-0.5-4.9-0.4
	c-0.2,0-0.4,0-0.6,0.1c-0.6,0.5-1.3,0.5-2.1,0.4c-1.1-0.2-2.6-1.5-2.7-2.6c-0.2-2-0.4-4-0.3-6.1c0.1-1.7,0.5-3.4,1.5-4.8
	c2.1-3,5.9-4.8,9.9-3.9C21.6,13,21.9,13.1,22.2,12.8z M17.4,19c-0.4-0.1-0.5,0.1-0.3,0.4c0.2,0.5,0.3,1,0.6,1.4
	c0.1,0.2,0.3,0.4,0.5,0.3c0.6-0.1,0.7-0.7,0.9-1.1c0.2-0.6-0.1-0.9-0.4-1.3c-0.4-0.4-0.6,0-0.8,0.2C17.7,19.1,17.6,19.1,17.4,19z
	 M19.8,18.7c0.2,0,0.4,0,0.5-0.1c1.1-0.1,2.1,0.3,3.2,0.6c0.3,0.1,0.6,0.3,0.8-0.1c0.1-0.3-0.2-0.4-0.4-0.6c-1-0.5-2-0.6-3.1-0.6
	C20.3,18.1,20,18.3,19.8,18.7z M15,18.5c-0.9,0-1.7,0.3-2.4,0.9c-0.1,0.1-0.3,0.3-0.2,0.5c0.2,0.2,0.4,0,0.5,0
	c0.7-0.4,1.4-0.7,2.2-0.8c0.3,0,0.7,0,0.7-0.3C15.8,18.4,15.4,18.5,15,18.5C15.1,18.5,15,18.5,15,18.5z"/>
<path class="st2" d="M22.2,12.8c-0.3,0.3-0.5,0.1-0.8,0c-4.1-0.9-7.8,0.9-9.9,3.9c-1,1.4-1.4,3.1-1.5,4.8c-0.1,2,0.1,4.1,0.3,6.1
	c0.1,1.2,1.5,2.5,2.7,2.6c0.8,0.1,1.5,0.1,2.1-0.4c0.2-0.1,0.4-0.1,0.6-0.1c1.6-0.1,3.3,0,4.9,0.4c0.4,0.1,0.8,0.1,1.2,0
	c1.2-0.3,2.3-0.4,3.5,0.2c0.6,0.3,1.2,0.1,1.4-0.6c0.2-0.5,0.5-0.8,0.9-1c0.5-0.3,0.9-0.7,1.1-1.4c0.2-1.1,0.3-2.3,0.1-3.4
	c-0.1-0.8-0.1-1.6,0.2-2.4c0.2-0.6,0-1.2-0.1-1.8c-0.3-0.9-0.6-1.7-0.9-2.5c0.9,1,1.1,2.2,1.3,3.5c0.3,2,0.4,4,1.2,5.9
	c0.1,0.3,0.2,0.6-0.1,0.8c-0.8,0.5-1,1.4-1.7,2.1c-0.3,0.3-0.5,0.5-0.9,0.7c-0.6,0.3-0.9,0.8-1,1.4c-0.1,0.1-0.1,0.1,0,0.2
	c0,0,0,0,0,0c0.1,1.3-0.7,1.9-1.9,1.6c-0.8-0.2-1.6-0.5-2.3-0.9c-0.4-0.3-0.8-0.4-1.3-0.3c-1.3,0.2-2.5,0.2-3.8,0.1
	c-1.2-0.1-2.3,0.1-3.4,0.7c-0.6,0.4-1.3,0.6-2.1,0.4c-0.5-0.1-0.6-0.4-0.5-0.9c0.1-0.4,0.5-0.8,0.3-1.3c-1-1.4-1.8-3-1.9-4.8
	c-0.2-2.6-0.4-5.3,0.5-7.8c1.2-3.7,4-5.6,7.7-6.3c0.3-0.1,0.8,0,0.9-0.4c0.1-0.5-0.3-0.7-0.6-0.9c-0.6-0.4-1.3-0.7-2.1-0.7
	c-0.3,0-0.7,0-0.8,0.4c-0.1,0.5,0.3,0.4,0.6,0.4c0.1,0,0.3,0.1,0.2,0.2c0,0.1-0.1,0.2-0.2,0.2c-0.3,0.2-0.6,0.3-0.9,0
	c-0.3-0.3-0.4-0.6-0.2-1c0.3-0.7,0.9-0.8,1.6-0.8c0.5,0,1,0.3,1.5,0.5c0.4,0.2,0.5,0,0.4-0.4c-0.4-1.9,0.5-3.1,1.9-4.2
	c0.9-0.7,2-1.1,2.9-1.8c0.3-0.2,0.6-0.1,0.7,0.3c0.4,1.6,0.9,3.2,0.2,4.7c-0.7,1.4-1.9,2.4-3.6,2.4c-0.2,0-0.4,0-0.7,0
	c-0.3,0-0.3,0.1-0.4,0.3c-0.1,0.3,0,0.3,0.3,0.4C20.5,12.4,21.3,12.6,22.2,12.8z"/>
<path class="st0" d="M17.4,19c0.2,0.1,0.3,0.1,0.4,0c0.2-0.2,0.5-0.6,0.8-0.2c0.3,0.3,0.7,0.7,0.4,1.3c-0.2,0.5-0.3,1-0.9,1.1
	c-0.2,0.1-0.4-0.1-0.5-0.3c-0.3-0.4-0.4-1-0.6-1.4C16.9,19.1,17,18.9,17.4,19z"/>
<path class="st0" d="M19.8,18.7c0.2-0.5,0.5-0.6,0.9-0.6c1.1-0.1,2.1,0.1,3.1,0.6c0.2,0.1,0.6,0.2,0.4,0.6c-0.2,0.4-0.5,0.2-0.8,0.1
	c-1-0.3-2.1-0.7-3.2-0.6C20.2,18.7,20,18.7,19.8,18.7z"/>
<path class="st0" d="M15,18.5C15,18.5,15.1,18.5,15,18.5c0.4,0,0.8-0.1,0.8,0.3c0,0.3-0.4,0.3-0.7,0.3c-0.8,0.1-1.5,0.4-2.2,0.8
	c-0.2,0.1-0.4,0.3-0.5,0c-0.1-0.2,0-0.4,0.2-0.5C13.3,18.8,14.1,18.5,15,18.5z"/>
</svg>
