<?xml version="1.0" encoding="utf-8"?>
<!-- Generator: Adobe Illustrator 28.1.0, SVG Export Plug-In . SVG Version: 6.00 Build 0)  -->
<svg version="1.1" id="图层_1" xmlns="http://www.w3.org/2000/svg" xmlns:xlink="http://www.w3.org/1999/xlink" x="0px" y="0px"
	 viewBox="0 0 140 40" style="enable-background:new 0 0 140 40;" xml:space="preserve">
<style type="text/css">
	.st0{fill:none;}
	.st1{fill:#4C4C4C;}
	.st2{fill:#CEE7D3;}
	.st3{fill:#81B6BE;}
	.st4{fill:#FFFFFF;}
</style>
<rect y="0" class="st0" width="140" height="40"/>
<path class="st1" d="M20,0L20,0c11,0,20,9,20,20l0,0c0,11-9,20-20,20l0,0C9,40,0,31,0,20l0,0C0,9,9,0,20,0z"/>
<path class="st2" d="M22.2,11.6c2.3,0.6,4.1,1.9,5.5,3.8c0,0.1,0,0.2,0.1,0.3c0,0.1,0,0.3,0.1,0.4l0,0c0.3,0.8,0.7,1.7,0.9,2.5
	c0.2,0.6,0.4,1.2,0.1,1.8c-0.3,0.8-0.4,1.6-0.2,2.4c0.2,1.2,0.2,2.3-0.1,3.5c-0.1,0.6-0.5,1.1-1.1,1.4c-0.4,0.2-0.8,0.5-0.9,1
	c-0.3,0.7-0.9,0.9-1.4,0.6c-1.2-0.5-2.3-0.5-3.5-0.2c-0.4,0.1-0.8,0.1-1.2,0c-1.6-0.4-3.2-0.5-4.9-0.4c-0.2,0-0.4,0-0.6,0.1
	c-0.6,0.5-1.3,0.5-2.1,0.4c-1.2-0.2-2.6-1.5-2.7-2.6c-0.2-2-0.4-4-0.3-6.1c0.1-1.7,0.5-3.4,1.5-4.8c2.1-3,5.8-4.8,9.9-3.9
	C21.7,11.7,21.9,11.9,22.2,11.6L22.2,11.6z M17.4,17.7c-0.4-0.1-0.5,0.1-0.3,0.4c0.2,0.5,0.3,1,0.6,1.4c0.1,0.2,0.3,0.4,0.6,0.3
	c0.6-0.1,0.7-0.7,0.9-1.1c0.2-0.5-0.1-0.9-0.4-1.3c-0.4-0.4-0.6,0-0.9,0.2C17.7,17.9,17.6,17.8,17.4,17.7z M19.8,17.4
	c0.2,0,0.4,0,0.5-0.1c1.1-0.1,2.1,0.3,3.2,0.6c0.3,0.1,0.6,0.3,0.8-0.1c0.1-0.4-0.2-0.5-0.4-0.6c-1-0.5-2-0.6-3.1-0.6
	C20.4,16.8,20,17,19.8,17.4L19.8,17.4z M15,17.2c-0.9,0-1.7,0.3-2.4,0.9c-0.2,0.1-0.3,0.3-0.2,0.5c0.2,0.2,0.4,0.1,0.5,0
	c0.7-0.4,1.4-0.7,2.2-0.8c0.3,0,0.7-0.1,0.7-0.4C15.8,17.1,15.4,17.2,15,17.2C15.1,17.2,15.1,17.2,15,17.2L15,17.2z"/>
<path class="st3" d="M22.2,11.6c-0.3,0.3-0.5,0.1-0.8,0c-4.1-0.9-7.8,0.9-9.9,3.9c-1,1.4-1.4,3.1-1.5,4.8c-0.1,2,0.1,4.1,0.3,6.1
	c0.1,1.2,1.5,2.5,2.7,2.6c0.8,0.1,1.5,0.1,2.1-0.4c0.2-0.1,0.4-0.1,0.6-0.1c1.6-0.1,3.3,0,4.9,0.4c0.4,0.1,0.8,0.1,1.2,0
	c1.2-0.3,2.3-0.4,3.5,0.2c0.6,0.3,1.2,0,1.5-0.6c0.2-0.5,0.5-0.8,0.9-1c0.5-0.3,0.9-0.7,1.1-1.4c0.2-1.1,0.3-2.3,0.1-3.5
	c-0.1-0.8-0.1-1.6,0.2-2.4c0.2-0.6,0-1.2-0.1-1.8c-0.3-0.9-0.6-1.7-0.9-2.5c0.9,1,1.1,2.2,1.3,3.5c0.2,2,0.4,4,1.2,5.9
	c0.1,0.3,0.2,0.6-0.1,0.8c-0.8,0.5-1,1.5-1.7,2c-0.3,0.2-0.5,0.5-0.9,0.7c-0.6,0.3-1,0.8-1,1.4c-0.1,0.1-0.1,0.1,0,0.2l0,0
	c0.1,1.3-0.7,1.9-1.9,1.6c-0.8-0.2-1.6-0.5-2.3-0.9C22,31,21.6,30.9,21.1,31c-1.3,0.2-2.5,0.2-3.8,0.1c-1.2-0.1-2.3,0.1-3.4,0.7
	c-0.6,0.4-1.3,0.6-2.1,0.4c-0.5-0.1-0.6-0.4-0.5-0.9c0.1-0.4,0.5-0.8,0.2-1.3c-1-1.4-1.8-3-1.9-4.8c-0.2-2.6-0.4-5.3,0.5-7.8
	c1.2-3.7,4-5.6,7.7-6.3c0.3-0.1,0.8,0,0.9-0.4c0.1-0.5-0.3-0.7-0.6-0.9c-0.6-0.4-1.3-0.7-2.1-0.7c-0.3,0-0.7,0-0.8,0.4
	c-0.1,0.5,0.3,0.4,0.6,0.4c0.1,0,0.3,0.1,0.2,0.2c0,0.1-0.1,0.2-0.2,0.2c-0.3,0.2-0.6,0.3-0.9,0c-0.3-0.3-0.4-0.6-0.2-0.9
	c0.3-0.7,0.9-0.8,1.6-0.8c0.5,0,1,0.3,1.5,0.5c0.4,0.2,0.5,0,0.4-0.4c-0.4-1.9,0.5-3.1,1.9-4.2c0.9-0.7,2-1.1,2.9-1.8
	c0.3-0.2,0.6-0.1,0.7,0.3c0.4,1.6,0.9,3.2,0.2,4.7c-0.7,1.4-1.9,2.4-3.6,2.4c-0.2,0-0.4,0-0.7,0c-0.3,0-0.3,0.1-0.4,0.3
	c-0.1,0.3,0,0.4,0.3,0.4C20.4,11.1,21.3,11.3,22.2,11.6L22.2,11.6z"/>
<path class="st3" d="M17.4,17.7c0.2,0.1,0.3,0.1,0.4,0c0.2-0.2,0.5-0.6,0.9-0.2c0.3,0.3,0.7,0.7,0.4,1.3c-0.2,0.5-0.3,1-0.9,1.1
	c-0.2,0.1-0.4-0.1-0.6-0.3c-0.3-0.4-0.4-0.9-0.6-1.4C17,17.8,17,17.6,17.4,17.7z"/>
<path class="st3" d="M19.8,17.4c0.2-0.5,0.5-0.6,0.9-0.6c1.1,0,2.1,0.1,3.1,0.6c0.2,0.1,0.6,0.2,0.5,0.6c-0.2,0.4-0.5,0.2-0.8,0.1
	c-1-0.3-2-0.7-3.2-0.6C20.2,17.4,20,17.4,19.8,17.4L19.8,17.4z"/>
<path class="st3" d="M15,17.2C15,17.2,15.1,17.2,15,17.2c0.4,0,0.8-0.1,0.8,0.3c0,0.3-0.4,0.3-0.7,0.4c-0.8,0.1-1.5,0.4-2.2,0.8
	c-0.2,0.1-0.4,0.3-0.5,0c-0.1-0.2,0-0.4,0.2-0.5C13.3,17.5,14.1,17.2,15,17.2L15,17.2z"/>
<g>
	<path class="st4" d="M64.3,28.6c0,0.5-0.2,0.9-0.5,1.2c-0.3,0.4-0.7,0.5-1.1,0.5c-0.8,0-3.8-2.1-9.1-6.4c-1.6,1.6-3.1,3.3-4.7,4.9
		c-1.2,1.2-2,1.8-2.5,1.8c-0.5,0-0.9-0.2-1.2-0.5s-0.5-0.8-0.5-1.2c0-0.6,0.7-1.5,2-2.6c2.2-2,3.8-3.5,4.8-4.6
		c-3.2-3.2-5.4-6.1-6.4-8.6c-0.6-0.4-1-0.9-1-1.4c0-0.5,0.2-0.9,0.5-1.3c0.3-0.4,0.7-0.5,1.2-0.5c0.7,0,1.2,0.2,1.6,0.7
		c0.3,0.3,0.7,1,1.2,2.1c0.9,2,2.6,4.1,5,6.5c1.8-2,3.2-4,4.2-6c0.3-0.8,0.7-1.6,1-2.4c0.3-0.6,0.8-1,1.5-1c0.5,0,0.9,0.2,1.3,0.5
		c0.3,0.3,0.5,0.7,0.5,1.3c0,2-2,5.4-5.9,10.1c1,0.9,3,2.4,5.9,4.4C63.5,27.1,64.3,28,64.3,28.6z"/>
	<path class="st4" d="M70.9,12.8c0,6.9-0.2,11.9-0.7,15.2c-0.2,1.3-0.4,2.2-0.6,2.7c-0.3,0.6-0.8,0.9-1.5,0.9
		c-0.5,0-0.8-0.2-1.2-0.5c-0.3-0.3-0.5-0.7-0.5-1.1c0,0.1,0.1-0.3,0.3-1.2c0.2-1,0.4-2,0.5-3.3c0.2-1.7,0.3-3.7,0.3-5.8
		c0-0.9,0-1.9,0-2.9c0-1,0-1.6,0-1.7c0-1.5,0.1-2.6,0.4-3.2c0.3-0.7,0.8-1,1.5-1C70.4,11,70.9,11.6,70.9,12.8z M71.6,6.3
		c0,1.6-0.8,2.4-2.4,2.4c-0.6,0-1.2-0.2-1.6-0.7c-0.4-0.4-0.7-1-0.7-1.6c0-0.7,0.2-1.3,0.7-1.7S68.8,4,69.5,4c0.6,0,1.2,0.2,1.6,0.6
		C71.4,5,71.6,5.6,71.6,6.3z"/>
	<path class="st4" d="M90.9,21.8c0,3.1-0.5,6.4-1.4,9.8c-0.5,1.7-1.1,2.6-2,2.6c-0.9,0-1.4-0.5-1.4-1.6c0-0.2,0-0.4,0-0.5
		C85,32.7,83.8,33,82.5,33c-2.2,0-3.9-0.6-5.1-1.9c-1.2-1.2-1.9-3-1.9-5.2c0-2.3,0.7-4.1,2-5.4c1.3-1.3,3.1-2,5.3-2
		c1.9,0,3.5,0.6,4.9,1.9c-0.2-4.5-1.9-6.7-5-6.7c-0.7,0-1.4,0.2-2.2,0.6C79.7,14.8,79.2,15,79,15c-0.4,0-0.7-0.2-1-0.5
		c-0.3-0.3-0.5-0.7-0.5-1.1c0-0.7,0.5-1.3,1.5-1.9c1.1-0.6,2.3-0.9,3.8-0.9C88.2,10.6,90.9,14.3,90.9,21.8z M87.4,25.8
		c0-2.9-1.4-4.3-4.1-4.3c-3,0-4.5,1.4-4.5,4.3c0,2.9,1.5,4.3,4.4,4.3c1.3,0,2.3-0.4,3-1.1C87.1,28.2,87.4,27.2,87.4,25.8z"/>
	<path class="st4" d="M100,31.9c0,0.8-0.1,1.3-0.2,1.6c-0.2,0.5-0.6,0.8-1.3,0.8c-1.1,0-1.7-0.9-1.9-2.6c-0.3-3-0.5-7-0.5-12.1
		c0-5.7,0.1-9.3,0.2-10.6c0.2-1.4,0.8-2.2,1.7-2.2c1.1,0,1.7,0.7,1.7,2.1c0,0.3-0.1,1.7-0.2,4.1c-0.1,2.4-0.2,4.6-0.2,6.6
		c0,1.8,0.1,4,0.3,6.8C99.9,29,100,30.9,100,31.9z"/>
	<path class="st4" d="M109.1,12.8c0,6.9-0.2,11.9-0.7,15.2c-0.2,1.3-0.4,2.2-0.6,2.7c-0.3,0.6-0.8,0.9-1.5,0.9
		c-0.5,0-0.8-0.2-1.2-0.5c-0.3-0.3-0.5-0.7-0.5-1.1c0,0.1,0.1-0.3,0.3-1.2c0.2-1,0.4-2,0.5-3.3c0.2-1.7,0.3-3.7,0.3-5.8
		c0-0.9,0-1.9,0-2.9c0-1,0-1.6,0-1.7c0-1.5,0.1-2.6,0.4-3.2c0.3-0.7,0.8-1,1.5-1C108.6,11,109.1,11.6,109.1,12.8z M109.9,6.3
		c0,1.6-0.8,2.4-2.4,2.4c-0.6,0-1.2-0.2-1.6-0.7c-0.4-0.4-0.7-1-0.7-1.6c0-0.7,0.2-1.3,0.7-1.7S107,4,107.7,4c0.6,0,1.2,0.2,1.6,0.6
		C109.7,5,109.9,5.6,109.9,6.3z"/>
	<path class="st4" d="M132.7,19.7c0,3.3-1,6-2.9,8s-4.6,3-7.8,3c-2.7,0-4.8-0.9-6.4-2.8c-1.5-1.8-2.3-4.4-2.3-7.7
		c0-3.5,0.9-6.1,2.8-8c1.8-1.9,4.3-2.8,7.6-2.8c2.7,0,4.9,0.9,6.6,2.8C131.9,14.1,132.7,16.6,132.7,19.7z M129.3,19.8
		c0-2.3-0.6-4.1-1.7-5.4c-1.1-1.3-2.6-1.9-4.5-1.9c-4.3,0-6.4,2.6-6.4,7.7c0,2.4,0.5,4.2,1.4,5.5c0.9,1.3,2.3,1.9,4,1.9
		c2.2,0,4-0.7,5.3-2.1S129.3,22.2,129.3,19.8z"/>
</g>
</svg>
